<mxfile host="app.diagrams.net" modified="2020-10-31T18:47:59.940Z" agent="5.0 (Windows NT 10.0; Win64; x64) AppleWebKit/537.36 (KHTML, like Gecko) Chrome/86.0.4240.111 Safari/537.36" etag="RshtFs1CZibUbKVcTI1T" version="13.8.8" type="github">
  <diagram id="uM8659kqhNxWzNyjm4Xm" name="Page-1">
    <mxGraphModel dx="1422" dy="697" grid="1" gridSize="10" guides="1" tooltips="1" connect="1" arrows="1" fold="1" page="1" pageScale="1" pageWidth="827" pageHeight="1169" math="0" shadow="0">
      <root>
        <mxCell id="0" />
        <mxCell id="1" parent="0" />
        <mxCell id="efrESeABImL-o4UUP48h-1" value="ESTACIONES" style="whiteSpace=wrap;html=1;align=center;fillColor=#dae8fc;strokeColor=#6c8ebf;" vertex="1" parent="1">
          <mxGeometry x="570" y="550" width="100" height="40" as="geometry" />
        </mxCell>
        <mxCell id="efrESeABImL-o4UUP48h-2" value="T-E&lt;br&gt;PARAR" style="shape=rhombus;perimeter=rhombusPerimeter;whiteSpace=wrap;html=1;align=center;fillColor=#d5e8d4;strokeColor=#82b366;" vertex="1" parent="1">
          <mxGeometry x="390" y="540" width="120" height="60" as="geometry" />
        </mxCell>
        <mxCell id="efrESeABImL-o4UUP48h-3" value="N:1" style="text;html=1;strokeColor=none;fillColor=none;align=center;verticalAlign=middle;whiteSpace=wrap;rounded=0;" vertex="1" parent="1">
          <mxGeometry x="430" y="430" width="40" height="20" as="geometry" />
        </mxCell>
        <mxCell id="efrESeABImL-o4UUP48h-4" value="(1,N)" style="text;html=1;strokeColor=none;fillColor=none;align=center;verticalAlign=middle;whiteSpace=wrap;rounded=0;" vertex="1" parent="1">
          <mxGeometry x="340" y="550" width="40" height="20" as="geometry" />
        </mxCell>
        <mxCell id="efrESeABImL-o4UUP48h-5" value="CIUDAD" style="ellipse;whiteSpace=wrap;html=1;align=center;fillColor=#ffe6cc;strokeColor=#d79b00;" vertex="1" parent="1">
          <mxGeometry x="690" y="450" width="110" height="40" as="geometry" />
        </mxCell>
        <mxCell id="efrESeABImL-o4UUP48h-6" value="T-E&lt;br&gt;SALIR" style="shape=rhombus;perimeter=rhombusPerimeter;whiteSpace=wrap;html=1;align=center;fillColor=#d5e8d4;strokeColor=#82b366;" vertex="1" parent="1">
          <mxGeometry x="390" y="450" width="120" height="60" as="geometry" />
        </mxCell>
        <mxCell id="efrESeABImL-o4UUP48h-7" value="T-E&lt;br&gt;LLEGAR" style="shape=rhombus;perimeter=rhombusPerimeter;whiteSpace=wrap;html=1;align=center;fillColor=#d5e8d4;strokeColor=#82b366;" vertex="1" parent="1">
          <mxGeometry x="390" y="630" width="120" height="60" as="geometry" />
        </mxCell>
        <mxCell id="efrESeABImL-o4UUP48h-8" value="" style="endArrow=none;html=1;entryX=0;entryY=0.5;entryDx=0;entryDy=0;exitX=1;exitY=0.5;exitDx=0;exitDy=0;" edge="1" parent="1" source="efrESeABImL-o4UUP48h-6" target="efrESeABImL-o4UUP48h-1">
          <mxGeometry width="50" height="50" relative="1" as="geometry">
            <mxPoint x="260" y="510" as="sourcePoint" />
            <mxPoint x="310" y="460" as="targetPoint" />
          </mxGeometry>
        </mxCell>
        <mxCell id="efrESeABImL-o4UUP48h-9" value="" style="endArrow=none;html=1;exitX=1;exitY=0.5;exitDx=0;exitDy=0;entryX=0;entryY=0.5;entryDx=0;entryDy=0;" edge="1" parent="1" source="efrESeABImL-o4UUP48h-2" target="efrESeABImL-o4UUP48h-1">
          <mxGeometry width="50" height="50" relative="1" as="geometry">
            <mxPoint x="520" y="490" as="sourcePoint" />
            <mxPoint x="550" y="620" as="targetPoint" />
          </mxGeometry>
        </mxCell>
        <mxCell id="efrESeABImL-o4UUP48h-10" value="" style="endArrow=none;html=1;entryX=0;entryY=0.5;entryDx=0;entryDy=0;exitX=1;exitY=0.5;exitDx=0;exitDy=0;" edge="1" parent="1" source="efrESeABImL-o4UUP48h-7" target="efrESeABImL-o4UUP48h-1">
          <mxGeometry width="50" height="50" relative="1" as="geometry">
            <mxPoint x="530" y="500" as="sourcePoint" />
            <mxPoint x="590" y="590" as="targetPoint" />
          </mxGeometry>
        </mxCell>
        <mxCell id="efrESeABImL-o4UUP48h-11" value="" style="endArrow=none;html=1;entryX=1;entryY=0.5;entryDx=0;entryDy=0;exitX=0;exitY=0.5;exitDx=0;exitDy=0;" edge="1" parent="1" source="efrESeABImL-o4UUP48h-6" target="efrESeABImL-o4UUP48h-15">
          <mxGeometry width="50" height="50" relative="1" as="geometry">
            <mxPoint x="540" y="510" as="sourcePoint" />
            <mxPoint x="600" y="600" as="targetPoint" />
          </mxGeometry>
        </mxCell>
        <mxCell id="efrESeABImL-o4UUP48h-12" value="" style="endArrow=none;html=1;entryX=1;entryY=0.5;entryDx=0;entryDy=0;exitX=0;exitY=0.5;exitDx=0;exitDy=0;" edge="1" parent="1" source="efrESeABImL-o4UUP48h-2" target="efrESeABImL-o4UUP48h-15">
          <mxGeometry width="50" height="50" relative="1" as="geometry">
            <mxPoint x="550" y="520" as="sourcePoint" />
            <mxPoint x="610" y="610" as="targetPoint" />
          </mxGeometry>
        </mxCell>
        <mxCell id="efrESeABImL-o4UUP48h-13" value="" style="endArrow=none;html=1;entryX=1;entryY=0.5;entryDx=0;entryDy=0;exitX=0;exitY=0.5;exitDx=0;exitDy=0;" edge="1" parent="1" source="efrESeABImL-o4UUP48h-7" target="efrESeABImL-o4UUP48h-15">
          <mxGeometry width="50" height="50" relative="1" as="geometry">
            <mxPoint x="560" y="530" as="sourcePoint" />
            <mxPoint x="620" y="620" as="targetPoint" />
          </mxGeometry>
        </mxCell>
        <mxCell id="efrESeABImL-o4UUP48h-15" value="TRAYECTOS" style="whiteSpace=wrap;html=1;align=center;fillColor=#dae8fc;strokeColor=#6c8ebf;" vertex="1" parent="1">
          <mxGeometry x="230" y="550" width="100" height="40" as="geometry" />
        </mxCell>
        <mxCell id="efrESeABImL-o4UUP48h-16" value="N:N" style="text;html=1;strokeColor=none;fillColor=none;align=center;verticalAlign=middle;whiteSpace=wrap;rounded=0;" vertex="1" parent="1">
          <mxGeometry x="430" y="520" width="40" height="20" as="geometry" />
        </mxCell>
        <mxCell id="efrESeABImL-o4UUP48h-17" value="N:1" style="text;html=1;strokeColor=none;fillColor=none;align=center;verticalAlign=middle;whiteSpace=wrap;rounded=0;" vertex="1" parent="1">
          <mxGeometry x="430" y="610" width="40" height="20" as="geometry" />
        </mxCell>
        <mxCell id="efrESeABImL-o4UUP48h-18" value="(0,N)" style="text;html=1;strokeColor=none;fillColor=none;align=center;verticalAlign=middle;whiteSpace=wrap;rounded=0;" vertex="1" parent="1">
          <mxGeometry x="520" y="550" width="40" height="20" as="geometry" />
        </mxCell>
        <mxCell id="efrESeABImL-o4UUP48h-19" value="(0,N)" style="text;html=1;strokeColor=none;fillColor=none;align=center;verticalAlign=middle;whiteSpace=wrap;rounded=0;" vertex="1" parent="1">
          <mxGeometry x="320" y="600" width="40" height="20" as="geometry" />
        </mxCell>
        <mxCell id="efrESeABImL-o4UUP48h-20" value="(1,1)" style="text;html=1;strokeColor=none;fillColor=none;align=center;verticalAlign=middle;whiteSpace=wrap;rounded=0;" vertex="1" parent="1">
          <mxGeometry x="550" y="600" width="40" height="20" as="geometry" />
        </mxCell>
        <mxCell id="efrESeABImL-o4UUP48h-21" value="(0,N)" style="text;html=1;strokeColor=none;fillColor=none;align=center;verticalAlign=middle;whiteSpace=wrap;rounded=0;" vertex="1" parent="1">
          <mxGeometry x="310" y="520" width="40" height="20" as="geometry" />
        </mxCell>
        <mxCell id="efrESeABImL-o4UUP48h-22" value="(1,1)" style="text;html=1;strokeColor=none;fillColor=none;align=center;verticalAlign=middle;whiteSpace=wrap;rounded=0;" vertex="1" parent="1">
          <mxGeometry x="550" y="520" width="40" height="20" as="geometry" />
        </mxCell>
        <mxCell id="efrESeABImL-o4UUP48h-23" value="L-T EMPLEARSE" style="shape=rhombus;perimeter=rhombusPerimeter;whiteSpace=wrap;html=1;align=center;fillColor=#d5e8d4;strokeColor=#82b366;" vertex="1" parent="1">
          <mxGeometry x="220" y="430" width="120" height="60" as="geometry" />
        </mxCell>
        <mxCell id="efrESeABImL-o4UUP48h-24" value="LOCOMOTORAS" style="whiteSpace=wrap;html=1;align=center;fillColor=#dae8fc;strokeColor=#6c8ebf;" vertex="1" parent="1">
          <mxGeometry x="230" y="330" width="100" height="40" as="geometry" />
        </mxCell>
        <mxCell id="efrESeABImL-o4UUP48h-25" value="" style="endArrow=none;html=1;exitX=0.5;exitY=0;exitDx=0;exitDy=0;entryX=0.5;entryY=1;entryDx=0;entryDy=0;" edge="1" parent="1" source="efrESeABImL-o4UUP48h-15" target="efrESeABImL-o4UUP48h-23">
          <mxGeometry width="50" height="50" relative="1" as="geometry">
            <mxPoint x="260" y="510" as="sourcePoint" />
            <mxPoint x="310" y="460" as="targetPoint" />
          </mxGeometry>
        </mxCell>
        <mxCell id="efrESeABImL-o4UUP48h-26" value="" style="endArrow=none;html=1;entryX=0.5;entryY=0;entryDx=0;entryDy=0;exitX=0.5;exitY=1;exitDx=0;exitDy=0;" edge="1" parent="1" source="efrESeABImL-o4UUP48h-24" target="efrESeABImL-o4UUP48h-23">
          <mxGeometry width="50" height="50" relative="1" as="geometry">
            <mxPoint x="260" y="510" as="sourcePoint" />
            <mxPoint x="310" y="460" as="targetPoint" />
          </mxGeometry>
        </mxCell>
        <mxCell id="efrESeABImL-o4UUP48h-27" value="(0,N)" style="text;html=1;strokeColor=none;fillColor=none;align=center;verticalAlign=middle;whiteSpace=wrap;rounded=0;" vertex="1" parent="1">
          <mxGeometry x="244" y="530" width="40" height="20" as="geometry" />
        </mxCell>
        <mxCell id="efrESeABImL-o4UUP48h-28" value="(1,1)" style="text;html=1;strokeColor=none;fillColor=none;align=center;verticalAlign=middle;whiteSpace=wrap;rounded=0;" vertex="1" parent="1">
          <mxGeometry x="244" y="370" width="40" height="20" as="geometry" />
        </mxCell>
        <mxCell id="efrESeABImL-o4UUP48h-29" value="1:N" style="text;html=1;strokeColor=none;fillColor=none;align=center;verticalAlign=middle;whiteSpace=wrap;rounded=0;" vertex="1" parent="1">
          <mxGeometry x="180" y="450" width="40" height="20" as="geometry" />
        </mxCell>
        <mxCell id="efrESeABImL-o4UUP48h-30" value="T-P&lt;br&gt;DISPONER" style="shape=rhombus;perimeter=rhombusPerimeter;whiteSpace=wrap;html=1;align=center;fillColor=#d5e8d4;strokeColor=#82b366;" vertex="1" parent="1">
          <mxGeometry x="220" y="650" width="120" height="60" as="geometry" />
        </mxCell>
        <mxCell id="efrESeABImL-o4UUP48h-31" value="PLAZAS" style="whiteSpace=wrap;html=1;align=center;fillColor=#dae8fc;strokeColor=#6c8ebf;" vertex="1" parent="1">
          <mxGeometry x="230" y="770" width="100" height="40" as="geometry" />
        </mxCell>
        <mxCell id="efrESeABImL-o4UUP48h-32" value="" style="endArrow=none;html=1;exitX=0.5;exitY=0;exitDx=0;exitDy=0;entryX=0.5;entryY=1;entryDx=0;entryDy=0;" edge="1" parent="1" source="efrESeABImL-o4UUP48h-30" target="efrESeABImL-o4UUP48h-15">
          <mxGeometry width="50" height="50" relative="1" as="geometry">
            <mxPoint x="260" y="630" as="sourcePoint" />
            <mxPoint x="310" y="580" as="targetPoint" />
          </mxGeometry>
        </mxCell>
        <mxCell id="efrESeABImL-o4UUP48h-33" value="" style="endArrow=none;html=1;exitX=0.5;exitY=1;exitDx=0;exitDy=0;entryX=0.5;entryY=0;entryDx=0;entryDy=0;" edge="1" parent="1" source="efrESeABImL-o4UUP48h-30" target="efrESeABImL-o4UUP48h-31">
          <mxGeometry width="50" height="50" relative="1" as="geometry">
            <mxPoint x="290" y="660" as="sourcePoint" />
            <mxPoint x="290" y="600" as="targetPoint" />
          </mxGeometry>
        </mxCell>
        <mxCell id="efrESeABImL-o4UUP48h-35" value="(1,1)" style="text;html=1;strokeColor=none;fillColor=none;align=center;verticalAlign=middle;whiteSpace=wrap;rounded=0;" vertex="1" parent="1">
          <mxGeometry x="240" y="590" width="40" height="20" as="geometry" />
        </mxCell>
        <mxCell id="efrESeABImL-o4UUP48h-36" value="(1,N)" style="text;html=1;strokeColor=none;fillColor=none;align=center;verticalAlign=middle;whiteSpace=wrap;rounded=0;" vertex="1" parent="1">
          <mxGeometry x="240" y="750" width="40" height="20" as="geometry" />
        </mxCell>
        <mxCell id="efrESeABImL-o4UUP48h-37" value="1:N" style="text;html=1;strokeColor=none;fillColor=none;align=center;verticalAlign=middle;whiteSpace=wrap;rounded=0;" vertex="1" parent="1">
          <mxGeometry x="180" y="670" width="40" height="20" as="geometry" />
        </mxCell>
        <mxCell id="efrESeABImL-o4UUP48h-38" value="CÓDIGO" style="ellipse;whiteSpace=wrap;html=1;align=center;fillColor=#ffe6cc;strokeColor=#d79b00;fontStyle=4" vertex="1" parent="1">
          <mxGeometry x="690" y="500" width="110" height="40" as="geometry" />
        </mxCell>
        <mxCell id="efrESeABImL-o4UUP48h-39" value="NOMBRE" style="ellipse;whiteSpace=wrap;html=1;align=center;fillColor=#ffe6cc;strokeColor=#d79b00;" vertex="1" parent="1">
          <mxGeometry x="690" y="550" width="110" height="40" as="geometry" />
        </mxCell>
        <mxCell id="efrESeABImL-o4UUP48h-40" value="" style="endArrow=none;html=1;entryX=1;entryY=0.5;entryDx=0;entryDy=0;exitX=0;exitY=0.5;exitDx=0;exitDy=0;" edge="1" parent="1" source="efrESeABImL-o4UUP48h-39" target="efrESeABImL-o4UUP48h-1">
          <mxGeometry width="50" height="50" relative="1" as="geometry">
            <mxPoint x="390" y="680" as="sourcePoint" />
            <mxPoint x="440" y="630" as="targetPoint" />
          </mxGeometry>
        </mxCell>
        <mxCell id="efrESeABImL-o4UUP48h-41" value="" style="endArrow=none;html=1;" edge="1" parent="1">
          <mxGeometry width="50" height="50" relative="1" as="geometry">
            <mxPoint x="680" y="570" as="sourcePoint" />
            <mxPoint x="680" y="470" as="targetPoint" />
          </mxGeometry>
        </mxCell>
        <mxCell id="efrESeABImL-o4UUP48h-42" value="" style="endArrow=none;html=1;entryX=0;entryY=0.5;entryDx=0;entryDy=0;" edge="1" parent="1" target="efrESeABImL-o4UUP48h-5">
          <mxGeometry width="50" height="50" relative="1" as="geometry">
            <mxPoint x="680" y="470" as="sourcePoint" />
            <mxPoint x="690" y="480" as="targetPoint" />
          </mxGeometry>
        </mxCell>
        <mxCell id="efrESeABImL-o4UUP48h-43" value="" style="endArrow=none;html=1;entryX=0;entryY=0.5;entryDx=0;entryDy=0;" edge="1" parent="1" target="efrESeABImL-o4UUP48h-38">
          <mxGeometry width="50" height="50" relative="1" as="geometry">
            <mxPoint x="680" y="520" as="sourcePoint" />
            <mxPoint x="700.0000000000059" y="480" as="targetPoint" />
          </mxGeometry>
        </mxCell>
        <mxCell id="efrESeABImL-o4UUP48h-44" value="CLIENTES" style="whiteSpace=wrap;html=1;align=center;fillColor=#dae8fc;strokeColor=#6c8ebf;" vertex="1" parent="1">
          <mxGeometry x="570" y="770" width="100" height="40" as="geometry" />
        </mxCell>
        <mxCell id="efrESeABImL-o4UUP48h-45" value="COMPRA" style="shape=rhombus;perimeter=rhombusPerimeter;whiteSpace=wrap;html=1;align=center;fillColor=#d5e8d4;strokeColor=#82b366;" vertex="1" parent="1">
          <mxGeometry x="390" y="760" width="120" height="60" as="geometry" />
        </mxCell>
        <mxCell id="efrESeABImL-o4UUP48h-46" value="" style="endArrow=none;html=1;exitX=1;exitY=0.5;exitDx=0;exitDy=0;entryX=0;entryY=0.5;entryDx=0;entryDy=0;" edge="1" parent="1" source="efrESeABImL-o4UUP48h-31" target="efrESeABImL-o4UUP48h-45">
          <mxGeometry width="50" height="50" relative="1" as="geometry">
            <mxPoint x="240" y="760" as="sourcePoint" />
            <mxPoint x="290" y="710" as="targetPoint" />
          </mxGeometry>
        </mxCell>
        <mxCell id="efrESeABImL-o4UUP48h-47" value="" style="endArrow=none;html=1;exitX=1;exitY=0.5;exitDx=0;exitDy=0;entryX=0;entryY=0.5;entryDx=0;entryDy=0;" edge="1" parent="1" source="efrESeABImL-o4UUP48h-45" target="efrESeABImL-o4UUP48h-44">
          <mxGeometry width="50" height="50" relative="1" as="geometry">
            <mxPoint x="340" y="800" as="sourcePoint" />
            <mxPoint x="400" y="800" as="targetPoint" />
          </mxGeometry>
        </mxCell>
        <mxCell id="efrESeABImL-o4UUP48h-48" value="(1,1)" style="text;html=1;strokeColor=none;fillColor=none;align=center;verticalAlign=middle;whiteSpace=wrap;rounded=0;" vertex="1" parent="1">
          <mxGeometry x="530" y="770" width="40" height="20" as="geometry" />
        </mxCell>
        <mxCell id="efrESeABImL-o4UUP48h-49" value="(0,N)" style="text;html=1;strokeColor=none;fillColor=none;align=center;verticalAlign=middle;whiteSpace=wrap;rounded=0;" vertex="1" parent="1">
          <mxGeometry x="330" y="770" width="40" height="20" as="geometry" />
        </mxCell>
        <mxCell id="efrESeABImL-o4UUP48h-50" value="N:1" style="text;html=1;strokeColor=none;fillColor=none;align=center;verticalAlign=middle;whiteSpace=wrap;rounded=0;" vertex="1" parent="1">
          <mxGeometry x="430" y="740" width="40" height="20" as="geometry" />
        </mxCell>
        <mxCell id="efrESeABImL-o4UUP48h-51" value="NOMBRE" style="ellipse;whiteSpace=wrap;html=1;align=center;fillColor=#ffe6cc;strokeColor=#d79b00;fontStyle=4" vertex="1" parent="1">
          <mxGeometry x="690" y="770" width="110" height="40" as="geometry" />
        </mxCell>
        <mxCell id="efrESeABImL-o4UUP48h-52" value="APELLIDOS" style="ellipse;whiteSpace=wrap;html=1;align=center;fillColor=#ffe6cc;strokeColor=#d79b00;" vertex="1" parent="1">
          <mxGeometry x="690" y="820" width="110" height="40" as="geometry" />
        </mxCell>
        <mxCell id="efrESeABImL-o4UUP48h-53" value="FECHA_COMPRA" style="ellipse;whiteSpace=wrap;html=1;align=center;fillColor=#ffe6cc;strokeColor=#d79b00;" vertex="1" parent="1">
          <mxGeometry x="690" y="870" width="110" height="40" as="geometry" />
        </mxCell>
        <mxCell id="efrESeABImL-o4UUP48h-54" value="HORA_COMPRA" style="ellipse;whiteSpace=wrap;html=1;align=center;fillColor=#ffe6cc;strokeColor=#d79b00;" vertex="1" parent="1">
          <mxGeometry x="690" y="920" width="110" height="40" as="geometry" />
        </mxCell>
        <mxCell id="efrESeABImL-o4UUP48h-55" value="FORMA_PAGO" style="ellipse;whiteSpace=wrap;html=1;align=center;fillColor=#ffe6cc;strokeColor=#d79b00;" vertex="1" parent="1">
          <mxGeometry x="690" y="970" width="110" height="40" as="geometry" />
        </mxCell>
        <mxCell id="efrESeABImL-o4UUP48h-56" value="" style="endArrow=none;html=1;entryX=1;entryY=0.5;entryDx=0;entryDy=0;exitX=0;exitY=0.5;exitDx=0;exitDy=0;" edge="1" parent="1" source="efrESeABImL-o4UUP48h-51" target="efrESeABImL-o4UUP48h-44">
          <mxGeometry width="50" height="50" relative="1" as="geometry">
            <mxPoint x="430" y="970" as="sourcePoint" />
            <mxPoint x="480" y="920" as="targetPoint" />
          </mxGeometry>
        </mxCell>
        <mxCell id="efrESeABImL-o4UUP48h-57" value="" style="endArrow=none;html=1;" edge="1" parent="1">
          <mxGeometry width="50" height="50" relative="1" as="geometry">
            <mxPoint x="680" y="990" as="sourcePoint" />
            <mxPoint x="680" y="790" as="targetPoint" />
          </mxGeometry>
        </mxCell>
        <mxCell id="efrESeABImL-o4UUP48h-58" value="" style="endArrow=none;html=1;entryX=0;entryY=0.5;entryDx=0;entryDy=0;" edge="1" parent="1" target="efrESeABImL-o4UUP48h-52">
          <mxGeometry width="50" height="50" relative="1" as="geometry">
            <mxPoint x="680" y="840" as="sourcePoint" />
            <mxPoint x="480" y="920" as="targetPoint" />
          </mxGeometry>
        </mxCell>
        <mxCell id="efrESeABImL-o4UUP48h-59" value="" style="endArrow=none;html=1;entryX=0;entryY=0.5;entryDx=0;entryDy=0;" edge="1" parent="1" target="efrESeABImL-o4UUP48h-53">
          <mxGeometry width="50" height="50" relative="1" as="geometry">
            <mxPoint x="680" y="890" as="sourcePoint" />
            <mxPoint x="700" y="850" as="targetPoint" />
          </mxGeometry>
        </mxCell>
        <mxCell id="efrESeABImL-o4UUP48h-60" value="" style="endArrow=none;html=1;entryX=0;entryY=0.5;entryDx=0;entryDy=0;" edge="1" parent="1" target="efrESeABImL-o4UUP48h-54">
          <mxGeometry width="50" height="50" relative="1" as="geometry">
            <mxPoint x="680" y="940" as="sourcePoint" />
            <mxPoint x="700" y="900" as="targetPoint" />
          </mxGeometry>
        </mxCell>
        <mxCell id="efrESeABImL-o4UUP48h-61" value="" style="endArrow=none;html=1;entryX=0;entryY=0.5;entryDx=0;entryDy=0;" edge="1" parent="1" target="efrESeABImL-o4UUP48h-55">
          <mxGeometry width="50" height="50" relative="1" as="geometry">
            <mxPoint x="680" y="990" as="sourcePoint" />
            <mxPoint x="700" y="950" as="targetPoint" />
          </mxGeometry>
        </mxCell>
        <mxCell id="efrESeABImL-o4UUP48h-62" value="MODELO" style="ellipse;whiteSpace=wrap;html=1;align=center;fillColor=#ffe6cc;strokeColor=#d79b00;fontStyle=4" vertex="1" parent="1">
          <mxGeometry x="350" y="330" width="110" height="40" as="geometry" />
        </mxCell>
        <mxCell id="efrESeABImL-o4UUP48h-63" value="FABRICANTE" style="ellipse;whiteSpace=wrap;html=1;align=center;fillColor=#ffe6cc;strokeColor=#d79b00;" vertex="1" parent="1">
          <mxGeometry x="350" y="80" width="110" height="40" as="geometry" />
        </mxCell>
        <mxCell id="efrESeABImL-o4UUP48h-64" value="VELOCIDAD" style="ellipse;whiteSpace=wrap;html=1;align=center;fillColor=#ffe6cc;strokeColor=#d79b00;" vertex="1" parent="1">
          <mxGeometry x="350" y="130" width="110" height="40" as="geometry" />
        </mxCell>
        <mxCell id="efrESeABImL-o4UUP48h-65" value="AÑO_PUESTA&lt;br&gt;FUNCIONAMIENTO" style="ellipse;whiteSpace=wrap;html=1;align=center;fillColor=#ffe6cc;strokeColor=#d79b00;" vertex="1" parent="1">
          <mxGeometry x="350" y="180" width="120" height="40" as="geometry" />
        </mxCell>
        <mxCell id="efrESeABImL-o4UUP48h-66" value="DESCRIPCIÓN" style="ellipse;whiteSpace=wrap;html=1;align=center;fillColor=#ffe6cc;strokeColor=#d79b00;" vertex="1" parent="1">
          <mxGeometry x="350" y="280" width="110" height="40" as="geometry" />
        </mxCell>
        <mxCell id="efrESeABImL-o4UUP48h-67" value="SERIE" style="ellipse;whiteSpace=wrap;html=1;align=center;fillColor=#ffe6cc;strokeColor=#d79b00;" vertex="1" parent="1">
          <mxGeometry x="350" y="230" width="110" height="40" as="geometry" />
        </mxCell>
        <mxCell id="efrESeABImL-o4UUP48h-68" value="" style="endArrow=none;html=1;exitX=1;exitY=0.5;exitDx=0;exitDy=0;entryX=0;entryY=0.5;entryDx=0;entryDy=0;" edge="1" parent="1" source="efrESeABImL-o4UUP48h-24" target="efrESeABImL-o4UUP48h-62">
          <mxGeometry width="50" height="50" relative="1" as="geometry">
            <mxPoint x="340" y="310" as="sourcePoint" />
            <mxPoint x="390" y="260" as="targetPoint" />
          </mxGeometry>
        </mxCell>
        <mxCell id="efrESeABImL-o4UUP48h-69" value="" style="endArrow=none;html=1;" edge="1" parent="1">
          <mxGeometry width="50" height="50" relative="1" as="geometry">
            <mxPoint x="340" y="350" as="sourcePoint" />
            <mxPoint x="340" y="100" as="targetPoint" />
          </mxGeometry>
        </mxCell>
        <mxCell id="efrESeABImL-o4UUP48h-70" value="" style="endArrow=none;html=1;exitX=0;exitY=0.5;exitDx=0;exitDy=0;" edge="1" parent="1" source="efrESeABImL-o4UUP48h-63">
          <mxGeometry width="50" height="50" relative="1" as="geometry">
            <mxPoint x="340" y="310" as="sourcePoint" />
            <mxPoint x="340" y="100" as="targetPoint" />
          </mxGeometry>
        </mxCell>
        <mxCell id="efrESeABImL-o4UUP48h-71" value="" style="endArrow=none;html=1;exitX=0;exitY=0.5;exitDx=0;exitDy=0;" edge="1" parent="1" source="efrESeABImL-o4UUP48h-64">
          <mxGeometry width="50" height="50" relative="1" as="geometry">
            <mxPoint x="360" y="110" as="sourcePoint" />
            <mxPoint x="340" y="150" as="targetPoint" />
          </mxGeometry>
        </mxCell>
        <mxCell id="efrESeABImL-o4UUP48h-72" value="" style="endArrow=none;html=1;exitX=0;exitY=0.5;exitDx=0;exitDy=0;" edge="1" parent="1" source="efrESeABImL-o4UUP48h-65">
          <mxGeometry width="50" height="50" relative="1" as="geometry">
            <mxPoint x="370" y="120" as="sourcePoint" />
            <mxPoint x="340" y="200" as="targetPoint" />
          </mxGeometry>
        </mxCell>
        <mxCell id="efrESeABImL-o4UUP48h-73" value="" style="endArrow=none;html=1;exitX=0;exitY=0.5;exitDx=0;exitDy=0;" edge="1" parent="1" source="efrESeABImL-o4UUP48h-67">
          <mxGeometry width="50" height="50" relative="1" as="geometry">
            <mxPoint x="380" y="130" as="sourcePoint" />
            <mxPoint x="340" y="250" as="targetPoint" />
          </mxGeometry>
        </mxCell>
        <mxCell id="efrESeABImL-o4UUP48h-74" value="" style="endArrow=none;html=1;exitX=0;exitY=0.5;exitDx=0;exitDy=0;" edge="1" parent="1" source="efrESeABImL-o4UUP48h-66">
          <mxGeometry width="50" height="50" relative="1" as="geometry">
            <mxPoint x="390" y="140" as="sourcePoint" />
            <mxPoint x="340" y="300" as="targetPoint" />
          </mxGeometry>
        </mxCell>
        <mxCell id="efrESeABImL-o4UUP48h-75" value="Nº_VAGÓN" style="ellipse;whiteSpace=wrap;html=1;align=center;fillColor=#ffe6cc;strokeColor=#d79b00;" vertex="1" parent="1">
          <mxGeometry x="160" y="830" width="110" height="40" as="geometry" />
        </mxCell>
        <mxCell id="efrESeABImL-o4UUP48h-76" value="Nº_ASIENTO" style="ellipse;whiteSpace=wrap;html=1;align=center;fillColor=#ffe6cc;strokeColor=#d79b00;fontStyle=4" vertex="1" parent="1">
          <mxGeometry x="160" y="880" width="110" height="40" as="geometry" />
        </mxCell>
        <mxCell id="efrESeABImL-o4UUP48h-77" value="TIPO" style="ellipse;whiteSpace=wrap;html=1;align=center;fillColor=#ffe6cc;strokeColor=#d79b00;" vertex="1" parent="1">
          <mxGeometry x="160" y="930" width="110" height="40" as="geometry" />
        </mxCell>
        <mxCell id="efrESeABImL-o4UUP48h-78" value="TARIFA" style="ellipse;whiteSpace=wrap;html=1;align=center;fillColor=#ffe6cc;strokeColor=#d79b00;" vertex="1" parent="1">
          <mxGeometry x="160" y="980" width="110" height="40" as="geometry" />
        </mxCell>
        <mxCell id="efrESeABImL-o4UUP48h-79" value="" style="endArrow=none;html=1;entryX=0.5;entryY=1;entryDx=0;entryDy=0;" edge="1" parent="1" target="efrESeABImL-o4UUP48h-31">
          <mxGeometry width="50" height="50" relative="1" as="geometry">
            <mxPoint x="280" y="1000" as="sourcePoint" />
            <mxPoint x="300" y="980" as="targetPoint" />
          </mxGeometry>
        </mxCell>
        <mxCell id="efrESeABImL-o4UUP48h-80" value="" style="endArrow=none;html=1;entryX=1;entryY=0.5;entryDx=0;entryDy=0;" edge="1" parent="1" target="efrESeABImL-o4UUP48h-78">
          <mxGeometry width="50" height="50" relative="1" as="geometry">
            <mxPoint x="280" y="1000" as="sourcePoint" />
            <mxPoint x="300" y="980" as="targetPoint" />
          </mxGeometry>
        </mxCell>
        <mxCell id="efrESeABImL-o4UUP48h-81" value="" style="endArrow=none;html=1;entryX=1;entryY=0.5;entryDx=0;entryDy=0;" edge="1" parent="1" target="efrESeABImL-o4UUP48h-77">
          <mxGeometry width="50" height="50" relative="1" as="geometry">
            <mxPoint x="280" y="950" as="sourcePoint" />
            <mxPoint x="280" y="1010" as="targetPoint" />
          </mxGeometry>
        </mxCell>
        <mxCell id="efrESeABImL-o4UUP48h-82" value="" style="endArrow=none;html=1;entryX=1;entryY=0.5;entryDx=0;entryDy=0;" edge="1" parent="1" target="efrESeABImL-o4UUP48h-76">
          <mxGeometry width="50" height="50" relative="1" as="geometry">
            <mxPoint x="280" y="900" as="sourcePoint" />
            <mxPoint x="280" y="960" as="targetPoint" />
          </mxGeometry>
        </mxCell>
        <mxCell id="efrESeABImL-o4UUP48h-83" value="" style="endArrow=none;html=1;entryX=1;entryY=0.5;entryDx=0;entryDy=0;" edge="1" parent="1" target="efrESeABImL-o4UUP48h-75">
          <mxGeometry width="50" height="50" relative="1" as="geometry">
            <mxPoint x="280" y="850" as="sourcePoint" />
            <mxPoint x="280" y="910" as="targetPoint" />
          </mxGeometry>
        </mxCell>
        <mxCell id="efrESeABImL-o4UUP48h-84" value="Nº_TRAYECTO" style="ellipse;whiteSpace=wrap;html=1;align=center;fillColor=#ffe6cc;strokeColor=#d79b00;" vertex="1" parent="1">
          <mxGeometry x="50" y="550" width="110" height="40" as="geometry" />
        </mxCell>
        <mxCell id="efrESeABImL-o4UUP48h-85" value="HORA_LLEGADA" style="ellipse;whiteSpace=wrap;html=1;align=center;fillColor=#ffe6cc;strokeColor=#d79b00;" vertex="1" parent="1">
          <mxGeometry x="50" y="400" width="110" height="40" as="geometry" />
        </mxCell>
        <mxCell id="efrESeABImL-o4UUP48h-86" value="HORA_SALIDA" style="ellipse;whiteSpace=wrap;html=1;align=center;fillColor=#ffe6cc;strokeColor=#d79b00;" vertex="1" parent="1">
          <mxGeometry x="50" y="450" width="110" height="40" as="geometry" />
        </mxCell>
        <mxCell id="efrESeABImL-o4UUP48h-87" value="FECHA" style="ellipse;whiteSpace=wrap;html=1;align=center;fillColor=#ffe6cc;strokeColor=#d79b00;" vertex="1" parent="1">
          <mxGeometry x="50" y="500" width="110" height="40" as="geometry" />
        </mxCell>
        <mxCell id="efrESeABImL-o4UUP48h-88" value="" style="endArrow=none;html=1;entryX=0;entryY=0.5;entryDx=0;entryDy=0;exitX=1;exitY=0.5;exitDx=0;exitDy=0;" edge="1" parent="1" source="efrESeABImL-o4UUP48h-84" target="efrESeABImL-o4UUP48h-15">
          <mxGeometry width="50" height="50" relative="1" as="geometry">
            <mxPoint x="40" y="640" as="sourcePoint" />
            <mxPoint x="90" y="590" as="targetPoint" />
          </mxGeometry>
        </mxCell>
        <mxCell id="efrESeABImL-o4UUP48h-89" value="" style="endArrow=none;html=1;" edge="1" parent="1">
          <mxGeometry width="50" height="50" relative="1" as="geometry">
            <mxPoint x="170" y="570" as="sourcePoint" />
            <mxPoint x="170" y="420" as="targetPoint" />
          </mxGeometry>
        </mxCell>
        <mxCell id="efrESeABImL-o4UUP48h-90" value="" style="endArrow=none;html=1;exitX=1;exitY=0.5;exitDx=0;exitDy=0;" edge="1" parent="1" source="efrESeABImL-o4UUP48h-87">
          <mxGeometry width="50" height="50" relative="1" as="geometry">
            <mxPoint x="40" y="640" as="sourcePoint" />
            <mxPoint x="170" y="520" as="targetPoint" />
          </mxGeometry>
        </mxCell>
        <mxCell id="efrESeABImL-o4UUP48h-91" value="" style="endArrow=none;html=1;exitX=1;exitY=0.5;exitDx=0;exitDy=0;" edge="1" parent="1" source="efrESeABImL-o4UUP48h-86">
          <mxGeometry width="50" height="50" relative="1" as="geometry">
            <mxPoint x="170" y="530" as="sourcePoint" />
            <mxPoint x="170" y="470" as="targetPoint" />
          </mxGeometry>
        </mxCell>
        <mxCell id="efrESeABImL-o4UUP48h-92" value="" style="endArrow=none;html=1;exitX=1;exitY=0.5;exitDx=0;exitDy=0;" edge="1" parent="1" source="efrESeABImL-o4UUP48h-85">
          <mxGeometry width="50" height="50" relative="1" as="geometry">
            <mxPoint x="180" y="540" as="sourcePoint" />
            <mxPoint x="170" y="420" as="targetPoint" />
          </mxGeometry>
        </mxCell>
      </root>
    </mxGraphModel>
  </diagram>
</mxfile>
